# xmcd
#
# Track frame offsets: 
#        150
#        14705
#        29905
#        44984
#        61788
#        75433
#        89121
#        105822
#        125449
#        137929
#        154288
#        174160
#        185537
#        199557
#        212318
#
# Disc length: 3116 seconds
#
# Revision: 0
# Processed by: cddbd v1.5.2PL0 Copyright (c) Steve Scherf et al.
# Submitted via: ExactAudioCopy v0.95b4
#
DISCID=cf0c2a0f
DTITLE=Satry Hill Band - In The Grove
DYEAR=2001
DGENRE=Bluegrass
TTITLE0=Shady Grove
TTITLE1=The Friendship Ring
TTITLE2=If You're Ever in Oklahoma
TTITLE3=Water's So Cold
TTITLE4=Plum Grove
TTITLE5=Blue Ridge Cabin Home
TTITLE6=Dusty Box Car
TTITLE7=High Sierra
TTITLE8=The Letter
TTITLE9=Downsize
TTITLE10=Wayfarin' Stranger
TTITLE11=Tried So Hard
TTITLE12=Song For Life
TTITLE13=Hold Watcha Got
TTITLE14=Harp Seal Lament
EXTD=
EXTT0=
EXTT1=
EXTT2=
EXTT3=
EXTT4=
EXTT5=
EXTT6=
EXTT7=
EXTT8=
EXTT9=
EXTT10=
EXTT11=
EXTT12=
EXTT13=
EXTT14=
PLAYORDER=
